<?xml version="1.0" encoding="utf-8"?>
<!-- Generator: Adobe Illustrator 16.0.0, SVG Export Plug-In . SVG Version: 6.00 Build 0)  -->
<!DOCTYPE svg PUBLIC "-//W3C//DTD SVG 1.0//EN" "http://www.w3.org/TR/2001/REC-SVG-20010904/DTD/svg10.dtd">
<svg version="1.0" id="Layer_1" xmlns="http://www.w3.org/2000/svg" xmlns:xlink="http://www.w3.org/1999/xlink" x="0px" y="0px"
	 width="407.807px" height="595.28px" viewBox="0 0 407.807 595.28" enable-background="new 0 0 407.807 595.28"
	 xml:space="preserve">
<path fill="#FFFFFF" d="M340.864,83.683c-36.841,0-66.89,27.416-66.89,61.109v2.282c-6.951-2.136-14.433-3.307-22.217-3.307
	c-17.687,0-33.832,6.079-45.936,15.993c-11.959-9.141-27.416-14.63-44.329-14.63c-7.831,0-15.364,1.164-22.362,3.353l-0.688-79.721
	C138.442,30.207,110.789,0,75.396,0C39.812,0,0,16.456,0,66.962v255.031v76.514c0,8.512,0.582,16.819,1.654,24.981
	c3.598,29.069,13.559,56.056,29.942,80.402c40.737,60.666,100.437,91.389,177.486,91.389c1.646,0,3.3-0.053,4.954-0.053
	c102.09-1.706,188.763-86.124,193.578-186.336l0.191-264.112C407.813,111.099,377.812,83.683,340.864,83.683z M229.799,205.021
	c0-7.044,9.027-14.922,21.959-14.922c12.983,0,21.972,7.878,21.972,14.922v104.617c0,7.104-8.988,14.882-21.972,14.882
	c-12.932,0-21.959-7.778-21.959-14.882V205.021z M161.493,191.455c12.978,0,21.966,7.825,21.966,14.875v59.938
	c-0.813-0.357-1.634-0.701-2.454-1.019c-6.098-2.361-12.613-3.618-19.419-3.625h-21.589h-0.04l-0.396-55.685
	C139.904,198.989,148.801,191.455,161.493,191.455z M46.326,66.962c1.429-23.395,16.04-20.61,29.069-20.61
	c12.296,0,16.721,13.414,16.721,22.601l1.118,136.604v0.774v55.295H60.077c-4.676,0-9.2,0.602-13.639,1.799h-0.119L46.326,66.962
	L46.326,66.962z M361.487,400.498c-0.105,77.73-69.37,147.048-148.225,148.417c-63.682,1.019-110.497-22.118-143.264-70.885
	c-13.712-20.358-21.49-43.316-23.236-68.392c-0.291-3.638-0.437-7.361-0.437-11.092v-0.039v-76.514c0-2.818,1.846-5.391,3.446-7.044
	l1.508-1.793c1.555-1.897,4.763-5.192,8.797-5.192h33.157h47.106h21.245c5.391,0,11.225,5.881,13.076,14.757
	c0.391,1.799,0.682,3.796,0.682,5.841c0,12.104-7.243,20.563-13.751,20.563h-50.903v2.665v20.524v23.189h50.896
	c22.7,0,42.483-14.148,52.695-34.896c10.795,6.422,23.573,10.258,37.477,10.258c37.383,0,67.875-27.025,68.298-60.434l0.245-165.634
	c0-8.023,9.432-14.829,20.563-14.829c11.178,0,20.616,6.806,20.616,14.829v255.699H361.487z"/>
</svg>
